<?xml version="1.0" encoding="utf-8"?>
<!-- Generator: Adobe Illustrator 28.0.0, SVG Export Plug-In . SVG Version: 6.00 Build 0)  -->
<svg version="1.1" id="Capa_1" xmlns="http://www.w3.org/2000/svg" xmlns:xlink="http://www.w3.org/1999/xlink" x="0px" y="0px"
	 viewBox="0 0 736.9 267.4" style="enable-background:new 0 0 736.9 267.4;" xml:space="preserve">
<style type="text/css">
	.st0{fill:#565754;}
</style>
<g>
	<path class="st0" d="M245.5,108.8l36.2-66.2l36.2,66.2H245.5z M326.5,124.5l18.1,33c0.8,1.4,2.3,2.3,3.9,2.3h15.6
		c1.8,0,2.9-1.9,2.1-3.5L294.8,27c-0.8-1.4-2.3-2.3-3.9-2.3h-18.5c-1.6,0-3.1,0.9-3.9,2.3l-71.3,129.4c-0.9,1.6,0.3,3.5,2.1,3.5
		h15.6c1.6,0,3.1-0.9,3.9-2.3l18.1-33L326.5,124.5L326.5,124.5z"/>
	<path class="st0" d="M166.4,120.5c-0.3,6.5-2.9,10.7-4.6,12.9c-7.3,9.1-18.1,10.1-28.6,10.1H56.3v-22.9V97.5h76.9
		c10.9,0,22.3,0.6,29.2,10.5C165.8,112.7,166.3,117.6,166.4,120.5L166.4,120.5z M56.3,61.1V41H127c7.9,0,16.1,0,23.2,4.4
		c3.7,2.3,6,5.2,7.4,8c2.3,4.7,2.3,10.2,0.4,15c-0.7,1.7-1.5,3-2.1,3.9c-6,8.7-15.9,8.9-25.2,8.9H56.3V61.1z M187.4,119.9
		c-1-11.9-6.2-18.9-9.8-22.6c-6.6-6.8-13.3-8.9-16.9-10.1c0,0,4.2-1.6,5.8-2.6c4.4-2.4,10.8-7.9,13.1-18.1c0.1-0.4,0.2-0.7,0.2-1.1
		c0.2-0.9,0.3-1.9,0.4-3c0.1-1.2,0.1-2.2,0.1-3c-0.3-7.5-2.5-14.4-7.5-20.5c-8.7-10.3-22.1-13.3-35-14.1c-3.6-0.2-7-0.2-10.7-0.2
		H40.4c-2.4,0-4.4,2-4.4,4.4v32v59.3v35c0,2.4,2,4.4,4.4,4.4h86.8c19.1,0,42.3-0.2,54.4-18.5c5.3-8,5.8-15.7,5.9-19.9
		C187.4,120.9,187.4,120.4,187.4,119.9"/>
	<path class="st0" d="M517.9,120.5c-0.3,6.5-2.9,10.7-4.6,12.9c-7.3,9.1-18.1,10.1-28.6,10.1h-76.9v-22.9V97.5h76.9
		c10.9,0,22.3,0.6,29.2,10.5C517.3,112.7,517.8,117.6,517.9,120.5L517.9,120.5z M407.8,61.1V41h70.7c7.9,0,16.1,0,23.2,4.4
		c3.7,2.3,6,5.2,7.4,8c2.3,4.7,2.3,10.2,0.4,15c-0.7,1.7-1.5,3-2.1,3.9c-6,8.7-15.9,8.9-25.2,8.9h-74.3L407.8,61.1L407.8,61.1z
		 M538.9,119.9c-1-11.9-6.2-18.9-9.8-22.6c-6.6-6.8-13.3-8.9-16.9-10.1c0,0,4.2-1.6,5.8-2.6c4.4-2.4,10.8-7.9,13.1-18.1
		c0.1-0.4,0.2-0.7,0.2-1.1c0.2-0.9,0.3-1.9,0.4-3c0.1-1.2,0.1-2.2,0.1-3c-0.3-7.5-2.5-14.4-7.5-20.5c-8.7-10.3-22.1-13.3-35-14.1
		c-3.6-0.2-7-0.2-10.7-0.2h-86.8c-2.4,0-4.4,2-4.4,4.4v32v59.3v35c0,2.4,2,4.4,4.4,4.4h86.8c19.1,0,42.3-0.2,54.4-18.5
		c5.3-8,5.8-15.7,5.9-19.9C538.9,120.9,538.9,120.4,538.9,119.9"/>
	<path class="st0" d="M568.3,80.6c-2.4,0-4.4,2-4.4,4.4v70.4c0,2.4,2,4.4,4.4,4.4h128.1c2.4,0,4.4-2,4.4-4.4v-8.7
		c0-2.5-2-4.4-4.4-4.4H584V97.5h112.4c2.4,0,4.4-2,4.4-4.4V85c0-2.4-2-4.4-4.4-4.4H568.3z"/>
	<path class="st0" d="M563.9,29.3V38c0,2.4,2,4.4,4.4,4.4H584h35.4h77c2.4,0,4.4-2,4.4-4.4v-8.7c0-2.4-2-4.4-4.4-4.4H568.3
		C565.9,24.9,563.9,26.9,563.9,29.3"/>
	<path class="st0" d="M33.9,210c0-0.5,0.4-0.9,0.9-0.9H38c0.5,0,0.9,0.4,0.9,0.9v27.8h12.8c0.5,0,0.9,0.4,0.9,0.9v2.6
		c0,0.5-0.4,0.9-0.9,0.9H34.8c-0.5,0-0.9-0.4-0.9-0.9C33.9,241.3,33.9,210,33.9,210z"/>
	<path class="st0" d="M105.1,230.9l-5.8-13H99l-5.8,13H105.1z M83.7,241l14.5-31.8c0.1-0.3,0.6-0.5,0.8-0.5h0.5
		c0.2,0,0.7,0.2,0.8,0.5l14.4,31.8c0.3,0.6-0.1,1.2-0.8,1.2h-3c-0.6,0-0.9-0.3-1.1-0.7l-2.9-6.5H91.4c-0.9,2.2-1.9,4.3-2.9,6.5
		c-0.1,0.3-0.5,0.7-1.1,0.7h-3C83.7,242.2,83.4,241.6,83.7,241"/>
	<path class="st0" d="M159.7,223.5c3,0,4.9-2.2,4.9-5.1c0-2.9-1.8-4.9-4.9-4.9h-6.4v9.9h6.4V223.5z M160.5,237.8
		c2.9,0,5.1-2.2,5.1-5.2c0-2.9-2.7-5-5.8-5h-6.5v10.1L160.5,237.8L160.5,237.8z M148.5,210c0-0.5,0.4-0.9,0.9-0.9H160
		c5.7,0,9.8,3.8,9.8,8.8c0,3.6-2.7,6.2-4.9,7.5c2.5,1,5.9,3.4,5.9,7.7c0,5.3-4.4,9.1-10.3,9.1h-11.1c-0.5,0-0.9-0.4-0.9-0.9V210z"/>
	<path class="st0" d="M221.6,237.9c6.8,0,12.3-5.5,12.3-12.3c0-6.7-5.5-12.3-12.3-12.3c-6.7,0-12.2,5.6-12.2,12.3
		C209.3,232.4,214.9,237.9,221.6,237.9 M221.6,208.6c9.5,0,17,7.6,17,17.1s-7.6,17-17,17c-9.5,0-17-7.5-17-17
		C204.6,216.2,212.1,208.6,221.6,208.6"/>
	<path class="st0" d="M287.8,225.2c3.1,0,5.8-2.6,5.8-5.9c0-3.1-2.7-5.6-5.8-5.6h-8.4v11.5H287.8z M274.5,210c0-0.5,0.4-0.9,0.9-0.9
		h12.9c5.7,0,10.3,4.5,10.3,10.1c0,4.4-2.9,7.9-7,9.6l6.5,12c0.3,0.6,0,1.4-0.8,1.4h-3.7c-0.4,0-0.7-0.2-0.8-0.4l-6.3-12.5h-7.1
		v12.1c0,0.5-0.4,0.9-0.9,0.9h-3.1c-0.5,0-0.9-0.4-0.9-0.9V210z"/>
	<path class="st0" d="M352,230.9l-5.8-13H346l-5.8,13H352z M330.5,241l14.5-31.8c0.1-0.3,0.6-0.5,0.8-0.5h0.5c0.2,0,0.7,0.2,0.8,0.5
		l14.4,31.8c0.3,0.6-0.1,1.2-0.8,1.2h-3c-0.6,0-0.9-0.3-1.1-0.7l-2.9-6.5h-15.5c-0.9,2.2-1.9,4.3-2.9,6.5c-0.1,0.3-0.5,0.7-1.1,0.7
		h-3C330.6,242.2,330.3,241.6,330.5,241"/>
	<path class="st0" d="M398.2,213.5h-7.7c-0.5,0-0.9-0.4-0.9-0.9V210c0-0.5,0.4-0.9,0.9-0.9h20.3c0.5,0,0.9,0.4,0.9,0.9v2.6
		c0,0.5-0.4,0.9-0.9,0.9h-7.7v27.8c0,0.5-0.4,0.9-0.9,0.9h-3.1c-0.5,0-0.9-0.4-0.9-0.9L398.2,213.5L398.2,213.5z"/>
	<path class="st0" d="M460,237.9c6.8,0,12.3-5.5,12.3-12.3c0-6.7-5.5-12.3-12.3-12.3c-6.7,0-12.2,5.6-12.2,12.3
		C447.8,232.4,453.3,237.9,460,237.9 M460,208.6c9.5,0,17,7.6,17,17.1s-7.6,17-17,17c-9.5,0-17-7.5-17-17
		C443,216.2,450.5,208.6,460,208.6"/>
	<path class="st0" d="M526.3,225.2c3.1,0,5.8-2.6,5.8-5.9c0-3.1-2.7-5.6-5.8-5.6h-8.4v11.5H526.3z M512.9,210c0-0.5,0.4-0.9,0.9-0.9
		h12.9c5.7,0,10.3,4.5,10.3,10.1c0,4.4-2.9,7.9-7,9.6l6.5,12c0.3,0.6,0,1.4-0.8,1.4H532c-0.4,0-0.7-0.2-0.8-0.4l-6.3-12.5h-7.1v12.1
		c0,0.5-0.4,0.9-0.9,0.9h-3.1c-0.5,0-0.9-0.4-0.9-0.9L512.9,210L512.9,210z"/>
	<path class="st0" d="M573.4,210c0-0.5,0.4-0.9,0.9-0.9h3.1c0.5,0,0.9,0.4,0.9,0.9v31.3c0,0.5-0.4,0.9-0.9,0.9h-3.1
		c-0.5,0-0.9-0.4-0.9-0.9V210z"/>
	<path class="st0" d="M631.2,237.9c6.8,0,12.3-5.5,12.3-12.3c0-6.7-5.5-12.3-12.3-12.3c-6.7,0-12.2,5.6-12.2,12.3
		C618.9,232.4,624.5,237.9,631.2,237.9 M631.2,208.6c9.5,0,17,7.6,17,17.1s-7.6,17-17,17c-9.5,0-17-7.5-17-17
		C614.2,216.2,621.7,208.6,631.2,208.6"/>
	<path class="st0" d="M681.9,237.4c0.4-0.6,0.8-1.3,1.2-1.9c0.4-0.6,1.1-0.8,1.6-0.4c0.3,0.2,3.9,3.3,7.6,3.3c3.3,0,5.3-2,5.3-4.4
		c0-2.8-2.5-4.6-7.1-6.6c-4.8-2-8.6-4.5-8.6-10c0-3.7,2.8-8.8,10.4-8.8c4.7,0,8.3,2.5,8.7,2.8c0.4,0.2,0.8,0.9,0.3,1.6
		c-0.4,0.6-0.8,1.2-1.2,1.8s-1,0.9-1.7,0.5c-0.3-0.2-3.6-2.4-6.4-2.4c-4,0-5.3,2.5-5.3,4.3c0,2.7,2.1,4.4,6,6
		c5.5,2.2,10.2,4.8,10.2,10.6c0,4.9-4.4,8.9-10.5,8.9c-5.8,0-9.4-3-10.2-3.7C681.8,238.5,681.5,238.2,681.9,237.4"/>
</g>
</svg>
